<?xml version="1.0" standalone="no"?>
<!DOCTYPE svg PUBLIC "-//W3C//DTD SVG 20010904//EN"
 "http://www.w3.org/TR/2001/REC-SVG-20010904/DTD/svg10.dtd">
<svg version="1.0" xmlns="http://www.w3.org/2000/svg"
 width="327.000000pt" height="327.000000pt" viewBox="0 0 327.000000 327.000000"
 preserveAspectRatio="xMidYMid meet">
<metadata>
Created by potrace 1.11, written by Peter Selinger 2001-2013
</metadata>
<g transform="translate(0.000000,327.000000) scale(0.100000,-0.100000)"
fill="#000000" stroke="none">
<path d="M732 3235 c-220 -50 -391 -223 -438 -445 -15 -69 -18 -139 -8 -187
l6 -29 56 19 c114 39 257 7 351 -78 22 -21 55 -67 73 -103 30 -60 33 -75 33
-157 0 -82 -3 -97 -34 -160 -49 -102 -88 -225 -113 -350 -29 -146 -31 -411 -4
-560 84 -465 359 -850 740 -1035 535 -260 1154 -77 1505 444 48 71 95 156 89
160 -2 1 -41 10 -87 20 -596 125 -1118 590 -1346 1201 -75 200 -107 371 -135
715 -12 156 -26 206 -80 289 -74 114 -174 194 -300 237 -91 32 -218 40 -308
19z m55 -377 c47 -44 14 -128 -51 -128 -40 0 -76 35 -76 74 0 66 78 100 127
54z m468 -1700 c61 -56 197 -179 303 -275 105 -96 192 -176 192 -179 0 -2
-162 -4 -360 -4 l-360 0 0 280 0 280 58 0 57 -1 110 -101z m715 -178 l0 -280
-90 0 c-87 0 -90 1 -90 23 0 12 -4 74 -9 137 -5 63 -12 162 -16 220 -3 58 -8
122 -11 143 l-6 37 111 0 111 0 0 -280z"/>
</g>
</svg>
